<?xml version="1.0" encoding="utf-8"?>
<!-- Generator: Adobe Illustrator 16.0.0, SVG Export Plug-In . SVG Version: 6.00 Build 0)  -->
<!DOCTYPE svg PUBLIC "-//W3C//DTD SVG 1.1//EN" "http://www.w3.org/Graphics/SVG/1.1/DTD/svg11.dtd">
<svg version="1.1" id="Layer_1" xmlns="http://www.w3.org/2000/svg" xmlns:xlink="http://www.w3.org/1999/xlink" x="0px" y="0px"
	 width="714.285px" height="1000px" viewBox="0 0 714.285 1000" enable-background="new 0 0 714.285 1000" xml:space="preserve">
<g>
	<path fill="#FF004F" d="M509.43,1000c36.22,0,65.587-29.132,65.587-65.058c0-35.933-29.367-65.064-65.587-65.064h-9.882
		c36.22,0,65.587,29.132,65.587,65.064c0,35.926-29.367,65.058-65.587,65.058H509.43z"/>
	<path fill="#00F2EA" d="M498.65,869.878h-9.882c-36.22,0-65.594,29.132-65.594,65.064c0,35.926,29.374,65.058,65.594,65.058h9.882
		c-36.227,0-65.594-29.132-65.594-65.058C433.057,899.01,462.424,869.878,498.65,869.878z"/>
	<path fill="#010101" d="M0,840.475v32.977h38.629V999.11h38.643V874.341h31.442l10.781-33.866H0z M316.262,840.475v32.977h38.63
		V999.11h38.645V874.341h31.44l10.778-33.866H316.262z M126.691,859.187c0-10.33,8.432-18.712,18.853-18.712
		c10.428,0,18.871,8.382,18.871,18.712c0,10.339-8.439,18.713-18.871,18.713C135.123,877.9,126.691,869.526,126.691,859.187z
		 M126.691,891.275h37.724V999.11h-37.724V891.275z M180.591,840.475V999.11h37.738v-40.991l11.682-10.706L266.842,1000h40.429
		l-53.014-76.646l47.619-46.345h-45.819l-37.729,37.426v-73.961H180.591z M587.59,840.475V999.11h37.741v-40.991l11.677-10.706
		L673.852,1000h40.434l-53.014-76.646l47.616-46.345h-45.814l-37.742,37.426v-73.961H587.59z"/>
	<path fill="#FF004F" d="M529.363,291.362c52.116,37.232,115.968,59.142,184.914,59.142V217.88
		c-13.051,0.005-26.065-1.356-38.83-4.063v104.396c-68.946,0-132.783-21.91-184.914-59.144v270.64
		c0,135.394-109.813,245.141-245.262,245.141c-50.537,0-97.514-15.271-136.537-41.462c44.537,45.514,106.646,73.756,175.361,73.756
		c135.461,0,245.275-109.748,245.275-245.148V291.362H529.363z M577.273,157.562c-26.639-29.082-44.123-66.667-47.91-108.22V32.286
		h-36.801C501.827,85.095,533.422,130.213,577.273,157.562L577.273,157.562z M194.405,629.502
		c-14.878-19.507-22.922-43.359-22.885-67.889c0-61.924,50.229-112.127,112.195-112.127c11.546-0.009,23.025,1.763,34.032,5.251
		V319.152c-12.86-1.761-25.839-2.507-38.819-2.233v105.534c-11.011-3.489-22.496-5.261-34.047-5.251
		c-61.967,0-112.19,50.205-112.19,112.135C132.691,573.122,157.795,611.032,194.405,629.502z"/>
	<path fill="#010101" d="M490.533,259.07c52.131,37.234,115.968,59.144,184.914,59.144V213.818
		c-38.484-8.189-72.557-28.295-98.174-56.256c-43.852-27.349-75.446-72.467-84.711-125.276h-96.659v529.711
		c-0.221,61.748-50.361,111.747-112.194,111.747c-36.438,0-68.809-17.353-89.308-44.241
		c-36.611-18.471-61.716-56.381-61.716-100.167c0-61.93,50.225-112.135,112.19-112.135c11.871,0,23.315,1.847,34.049,5.251V316.918
		C145.853,319.667,38.828,428.342,38.828,561.997c0,66.719,26.653,127.21,69.906,171.4c39.022,26.19,86,41.462,136.537,41.462
		c135.449,0,245.262-109.755,245.262-245.141V259.07L490.533,259.07z"/>
	<path fill="#00F2EA" d="M675.447,213.818v-28.227c-34.705,0.051-68.733-9.664-98.174-28.034
		C603.339,186.08,637.662,205.75,675.447,213.818z M492.563,32.286c-0.882-5.047-1.559-10.126-2.029-15.229V0H357.066v529.71
		c-0.213,61.749-50.352,111.747-112.19,111.747c-18.156,0-35.295-4.301-50.475-11.955c20.499,26.889,52.87,44.241,89.308,44.241
		c61.83,0,111.973-49.999,112.194-111.747V32.286H492.563z M278.928,316.918v-30.053c-11.152-1.524-22.396-2.287-33.651-2.279
		C109.81,284.586,0,394.337,0,529.71c0,84.88,43.157,159.68,108.738,203.679c-43.252-44.19-69.904-104.674-69.904-171.393
		C38.833,428.342,145.853,319.667,278.928,316.918z"/>
	<path fill="#010101" d="M499.54,1000c36.228,0,65.595-29.132,65.595-65.058c0-35.933-29.367-65.064-65.595-65.064h-0.896
		c-36.22,0-65.587,29.132-65.587,65.064c0,35.926,29.367,65.058,65.587,65.058H499.54z M467.203,934.943
		c0-17.478,14.279-31.632,31.903-31.632c17.603,0,31.889,14.154,31.889,31.632s-14.286,31.639-31.889,31.639
		C481.482,966.582,467.203,952.42,467.203,934.943z"/>
</g>
</svg>
